<svg width="423" height="132" viewBox="0 0 423 132" fill="none" xmlns="http://www.w3.org/2000/svg">
<path d="M70.2703 13.4072C73.5609 13.9132 76.2332 14.8719 78.4204 16.1773C81.7566 18.1686 83.9448 20.9552 85.4849 24.1329C87.0243 27.3096 87.9207 30.8871 88.665 34.4691C88.8675 35.444 89.0588 36.4188 89.2485 37.3862C89.7572 39.979 90.2554 42.5185 90.9333 44.8638C93.1386 52.4943 96.1171 58.0392 98.8531 63.1327C99.4116 64.1725 99.9602 65.1937 100.49 66.2098C103.615 72.2054 106.081 78.0194 106.081 86.4777C106.081 96.6726 101.647 104.487 94.227 109.914C88.0264 114.448 79.7533 117.306 70.2703 118.5C60.7872 117.306 52.5141 114.448 46.3136 109.914C38.8931 104.487 34.4595 96.6726 34.4595 86.4777C34.4595 78.0194 36.9251 72.2054 40.0506 66.2098C40.5803 65.1938 41.1286 64.1729 41.6871 63.1332L41.6874 63.1328C44.4234 58.0393 47.402 52.4943 49.6073 44.8638C50.2851 42.5185 50.7833 39.9791 51.292 37.3862C51.4818 36.4189 51.673 35.444 51.8756 34.4691C52.6199 30.8871 53.5162 27.3096 55.0557 24.1329C56.5957 20.9552 58.784 18.1686 62.1202 16.1773C64.3074 14.8719 66.9797 13.9132 70.2703 13.4072Z" fill="url(#paint0_radial_2_2)"/>
<path d="M70.2703 118.5C60.7872 117.306 52.5141 114.448 46.3136 109.914C38.8931 104.487 34.4595 96.6726 34.4595 86.4777C34.4595 78.0194 36.9251 72.2054 40.0506 66.2098C40.5803 65.1938 41.1287 64.1729 41.6872 63.1331L41.6873 63.1329C44.4233 58.0394 47.402 52.4943 49.6073 44.8638C50.2851 42.5186 50.7833 39.9792 51.2919 37.3864L51.2921 37.3858C51.4818 36.4186 51.6731 35.4438 51.8756 34.4691C52.6199 30.8871 53.5162 27.3096 55.0557 24.1329C56.5957 20.9552 58.784 18.1686 62.1202 16.1773C64.3074 14.8719 66.9797 13.9132 70.2703 13.4072C68.5948 13.1496 66.7591 13.0094 64.7454 13.0005L64.7449 13H64.3362L64.3357 13.0005C58.3672 13.0268 53.9615 14.2072 50.6607 16.1773C47.3245 18.1686 45.1362 20.9552 43.5962 24.1329C42.0567 27.3096 41.1604 30.8871 40.4161 34.4691C40.2136 35.444 40.0223 36.4189 39.8325 37.3862L39.8325 37.3863C39.3238 39.9791 38.8256 42.5185 38.1478 44.8638C35.9425 52.4943 32.9639 58.0393 30.2279 63.1328L30.2277 63.1332C29.6692 64.1729 29.1208 65.1938 28.5912 66.2098C25.4656 72.2054 23 78.0194 23 86.4777C23 96.6726 27.4336 104.487 34.8541 109.914C42.2316 115.309 52.5432 118.331 64.3359 119H64.7452C66.6265 118.893 68.4702 118.727 70.2703 118.5Z" fill="url(#paint1_radial_2_2)"/>
<path d="M88.7213 91.7842C84.6961 92.9838 80.5297 90.6732 79.4156 86.6235C83.4409 85.4239 87.6072 87.7344 88.7213 91.7842Z" fill="#3F3838"/>
<path d="M70.4944 102.744C67.4353 99.8656 67.3406 95.1024 70.2829 92.105C73.342 94.9831 73.4367 99.7463 70.4944 102.744Z" fill="#3F3838"/>
<path d="M51.8266 92.3599C52.811 88.2767 56.9016 85.8345 60.963 86.9052C59.9786 90.9884 55.888 93.4306 51.8266 92.3599Z" fill="#3F3838"/>
<path d="M51.5799 70.9958C55.6143 69.8273 59.7627 72.1699 60.8455 76.2281C56.8111 77.3966 52.6627 75.054 51.5799 70.9958Z" fill="#3F3838"/>
<path d="M69.8276 60.18C72.8654 63.0807 72.925 67.8444 69.9607 70.8201C66.9229 67.9194 66.8633 63.1557 69.8276 60.18Z" fill="#3F3838"/>
<path d="M88.4381 70.6411C87.4236 74.717 83.3151 77.129 79.2617 76.0284C80.2762 71.9526 84.3846 69.5406 88.4381 70.6411Z" fill="#3F3838"/>
<path d="M151.952 48.544C156.048 48.544 159.227 49.5253 161.488 51.488C163.749 53.408 165.285 55.6907 166.096 58.336C166.907 60.9387 167.312 63.5413 167.312 66.144C167.312 68.7467 166.907 71.3707 166.096 74.016C165.285 76.6187 163.749 78.9013 161.488 80.864C159.227 82.784 156.048 83.744 151.952 83.744C148.624 83.744 145.851 82.848 143.632 81.056C143.333 80.7573 143.035 80.608 142.736 80.608C142.309 80.608 142.096 80.9707 142.096 81.696V95.136C142.096 95.5627 141.968 95.8827 141.712 96.096C141.499 96.352 141.179 96.48 140.752 96.48H136.912C136.485 96.48 136.144 96.352 135.888 96.096C135.675 95.8827 135.568 95.5627 135.568 95.136V50.72C135.568 50.2933 135.675 49.9733 135.888 49.76C136.144 49.504 136.485 49.376 136.912 49.376H140.752C141.179 49.376 141.499 49.504 141.712 49.76C141.968 49.9733 142.096 50.2933 142.096 50.72C142.096 51.0613 142.139 51.3387 142.224 51.552C142.352 51.7227 142.501 51.808 142.672 51.808C142.885 51.808 143.077 51.7227 143.248 51.552C145.509 49.5467 148.411 48.544 151.952 48.544ZM151.312 77.856C154.597 77.856 157.008 76.7253 158.544 74.464C160.123 72.2027 160.912 69.4293 160.912 66.144C160.912 62.8587 160.123 60.0853 158.544 57.824C157.008 55.5627 154.597 54.432 151.312 54.432C148.069 54.432 145.701 55.5627 144.208 57.824C142.757 60.0427 142.032 62.816 142.032 66.144C142.032 69.472 142.757 72.2667 144.208 74.528C145.701 76.7467 148.069 77.856 151.312 77.856Z" fill="#3F3838"/>
<path d="M205.892 66.976C205.892 67.5733 205.444 67.872 204.548 67.872H181.764C181.295 67.872 180.953 68 180.74 68.256C180.527 68.512 180.441 68.8533 180.484 69.28C180.953 71.84 181.935 73.9093 183.428 75.488C184.964 77.0667 187.055 77.856 189.7 77.856C191.705 77.856 193.305 77.4933 194.5 76.768C195.695 76 196.74 74.7627 197.636 73.056C197.977 72.4587 198.383 72.16 198.852 72.16C198.98 72.16 199.172 72.2027 199.428 72.288L203.268 73.504C203.908 73.6747 204.228 74.0373 204.228 74.592C204.228 74.8907 204.185 75.104 204.1 75.232C202.905 77.7493 201.113 79.7973 198.724 81.376C196.377 82.9547 193.369 83.744 189.7 83.744C185.561 83.744 182.297 82.784 179.908 80.864C177.519 78.9013 175.855 76.5973 174.916 73.952C174.02 71.264 173.572 68.6613 173.572 66.144C173.572 63.6267 174.02 61.0453 174.916 58.4C175.855 55.712 177.519 53.408 179.908 51.488C182.297 49.5253 185.561 48.544 189.7 48.544C193.839 48.544 197.103 49.5253 199.492 51.488C201.924 53.408 203.588 55.712 204.484 58.4C205.423 61.0453 205.892 63.6267 205.892 66.144V66.976ZM189.7 54.432C187.439 54.432 185.583 55.0293 184.132 56.224C182.681 57.4187 181.636 59.0187 180.996 61.024C180.953 61.152 180.932 61.3013 180.932 61.472C180.932 62.1547 181.337 62.496 182.148 62.496H197.316C197.785 62.496 198.127 62.3893 198.34 62.176C198.596 61.92 198.66 61.6 198.532 61.216C197.935 59.168 196.889 57.5253 195.396 56.288C193.945 55.0507 192.047 54.432 189.7 54.432Z" fill="#3F3838"/>
<path d="M241.586 72.8C241.672 74.08 241.885 75.0827 242.226 75.808C242.568 76.4907 243.293 77.024 244.402 77.408C245.085 77.664 245.426 78.0267 245.426 78.496C245.426 78.6667 245.362 78.88 245.234 79.136L243.442 82.72C243.101 83.488 242.546 83.7653 241.778 83.552C239.304 82.9973 237.597 81.7813 236.658 79.904C236.445 79.4347 236.232 79.2 236.018 79.2C235.805 79.2 235.57 79.3707 235.314 79.712C233.096 82.4 229.49 83.744 224.498 83.744C221.469 83.744 219.016 83.2107 217.138 82.144C215.304 81.0773 214.002 79.7973 213.234 78.304C212.466 76.768 212.082 75.296 212.082 73.888C212.082 71.584 212.786 69.5147 214.194 67.68C215.645 65.8453 217.8 64.5653 220.658 63.84C222.621 63.3707 225.352 63.008 228.85 62.752C231.24 62.5813 232.968 62.4107 234.034 62.24C234.888 62.112 235.272 61.6 235.186 60.704C234.973 58.784 234.333 57.248 233.266 56.096C232.242 54.9013 230.514 54.304 228.082 54.304C226.504 54.304 224.989 54.6453 223.538 55.328C222.13 55.968 221.042 57.0987 220.274 58.72C219.89 59.5307 219.336 59.808 218.61 59.552L214.706 58.464C214.024 58.2507 213.682 57.888 213.682 57.376C213.682 57.248 213.725 57.056 213.81 56.8C214.834 54.3253 216.52 52.3627 218.866 50.912C221.213 49.4187 224.264 48.672 228.018 48.672C231.688 48.672 234.802 49.632 237.362 51.552C239.922 53.4293 241.288 56.16 241.458 59.744C241.501 61.4507 241.522 63.7333 241.522 66.592C241.565 69.4507 241.586 71.52 241.586 72.8ZM225.586 78.24C226.738 78.24 227.997 77.9627 229.362 77.408C230.77 76.8533 232.008 75.8933 233.074 74.528C234.184 73.12 234.866 71.2427 235.122 68.896V68.768C235.122 68.3413 234.994 68.0213 234.738 67.808C234.482 67.552 234.141 67.4667 233.714 67.552L231.218 67.808C228.445 68.064 226.184 68.3627 224.434 68.704C222.728 69.0027 221.256 69.5573 220.018 70.368C218.824 71.136 218.226 72.2453 218.226 73.696C218.226 75.4453 218.994 76.64 220.53 77.28C222.066 77.92 223.752 78.24 225.586 78.24Z" fill="#3F3838"/>
<path d="M257.801 49.376C258.228 49.376 258.548 49.504 258.761 49.76C259.017 49.9733 259.145 50.2933 259.145 50.72V52.64C259.145 52.9813 259.188 53.2587 259.273 53.472C259.401 53.6427 259.55 53.728 259.721 53.728C260.02 53.728 260.318 53.536 260.617 53.152C262.921 50.592 265.822 49.184 269.321 48.928H269.449C269.876 48.928 270.196 49.056 270.409 49.312C270.622 49.5253 270.729 49.824 270.729 50.208V54.624C270.729 55.52 270.473 55.968 269.961 55.968C269.79 55.9253 269.534 55.904 269.193 55.904C267.742 55.904 266.27 56.224 264.777 56.864C263.326 57.504 262.068 58.4213 261.001 59.616C259.977 60.8107 259.358 62.1547 259.145 63.648V81.568C259.145 81.9947 259.017 82.336 258.761 82.592C258.548 82.8053 258.228 82.912 257.801 82.912H253.641C253.214 82.912 252.873 82.8053 252.617 82.592C252.404 82.336 252.297 81.9947 252.297 81.568V50.72C252.297 50.2933 252.404 49.9733 252.617 49.76C252.873 49.504 253.214 49.376 253.641 49.376H257.801Z" fill="#3F3838"/>
<path d="M281.777 83.744C280.54 83.744 279.473 83.296 278.577 82.4C277.681 81.504 277.233 80.416 277.233 79.136C277.233 77.8987 277.681 76.832 278.577 75.936C279.473 75.04 280.54 74.592 281.777 74.592C283.057 74.592 284.145 75.04 285.041 75.936C285.937 76.832 286.385 77.8987 286.385 79.136C286.385 80.416 285.937 81.504 285.041 82.4C284.145 83.296 283.057 83.744 281.777 83.744Z" fill="#3F3838"/>
<path d="M317.944 51.232C318.243 51.5307 318.541 51.68 318.84 51.68C319.267 51.68 319.48 51.3173 319.48 50.592V37.344C319.48 36.9173 319.587 36.5973 319.8 36.384C320.056 36.128 320.397 36 320.824 36H324.664C325.091 36 325.411 36.128 325.624 36.384C325.88 36.5973 326.008 36.9173 326.008 37.344V81.568C326.008 81.9947 325.88 82.336 325.624 82.592C325.411 82.8053 325.091 82.912 324.664 82.912H320.824C320.397 82.912 320.056 82.8053 319.8 82.592C319.587 82.336 319.48 81.9947 319.48 81.568C319.48 80.928 319.288 80.608 318.904 80.608C318.605 80.608 318.285 80.7573 317.944 81.056C315.725 82.848 312.931 83.744 309.56 83.744C305.507 83.744 302.328 82.784 300.024 80.864C297.763 78.9013 296.227 76.5973 295.416 73.952C294.605 71.3067 294.2 68.704 294.2 66.144C294.2 63.584 294.605 60.9813 295.416 58.336C296.227 55.6907 297.763 53.408 300.024 51.488C302.328 49.5253 305.507 48.544 309.56 48.544C312.931 48.544 315.725 49.44 317.944 51.232ZM310.264 77.856C313.507 77.856 315.853 76.7467 317.304 74.528C318.797 72.2667 319.544 69.472 319.544 66.144C319.544 62.816 318.797 60.0427 317.304 57.824C315.853 55.5627 313.507 54.432 310.264 54.432C306.979 54.432 304.547 55.5627 302.968 57.824C301.389 60.0853 300.6 62.8587 300.6 66.144C300.6 69.4293 301.389 72.2027 302.968 74.464C304.547 76.7253 306.979 77.856 310.264 77.856Z" fill="#3F3838"/>
<path d="M366.892 66.976C366.892 67.5733 366.444 67.872 365.548 67.872H342.764C342.295 67.872 341.953 68 341.74 68.256C341.527 68.512 341.441 68.8533 341.484 69.28C341.953 71.84 342.935 73.9093 344.428 75.488C345.964 77.0667 348.055 77.856 350.7 77.856C352.705 77.856 354.305 77.4933 355.5 76.768C356.695 76 357.74 74.7627 358.636 73.056C358.977 72.4587 359.383 72.16 359.852 72.16C359.98 72.16 360.172 72.2027 360.428 72.288L364.268 73.504C364.908 73.6747 365.228 74.0373 365.228 74.592C365.228 74.8907 365.185 75.104 365.1 75.232C363.905 77.7493 362.113 79.7973 359.724 81.376C357.377 82.9547 354.369 83.744 350.7 83.744C346.561 83.744 343.297 82.784 340.908 80.864C338.519 78.9013 336.855 76.5973 335.916 73.952C335.02 71.264 334.572 68.6613 334.572 66.144C334.572 63.6267 335.02 61.0453 335.916 58.4C336.855 55.712 338.519 53.408 340.908 51.488C343.297 49.5253 346.561 48.544 350.7 48.544C354.839 48.544 358.103 49.5253 360.492 51.488C362.924 53.408 364.588 55.712 365.484 58.4C366.423 61.0453 366.892 63.6267 366.892 66.144V66.976ZM350.7 54.432C348.439 54.432 346.583 55.0293 345.132 56.224C343.681 57.4187 342.636 59.0187 341.996 61.024C341.953 61.152 341.932 61.3013 341.932 61.472C341.932 62.1547 342.337 62.496 343.148 62.496H358.316C358.785 62.496 359.127 62.3893 359.34 62.176C359.596 61.92 359.66 61.6 359.532 61.216C358.935 59.168 357.889 57.5253 356.396 56.288C354.945 55.0507 353.047 54.432 350.7 54.432Z" fill="#3F3838"/>
<path d="M385.05 70.56C385.136 70.816 385.264 71.0293 385.434 71.2C385.605 71.3707 385.776 71.456 385.946 71.456C386.33 71.456 386.629 71.1573 386.842 70.56L393.754 50.464C394.01 49.7387 394.522 49.376 395.29 49.376H399.771C400.581 49.376 400.986 49.7173 400.986 50.4L400.858 50.912L389.722 81.824C389.466 82.5493 388.954 82.912 388.186 82.912H383.642C382.874 82.912 382.362 82.5493 382.106 81.824L370.97 50.912L370.842 50.4C370.842 49.7173 371.248 49.376 372.058 49.376H376.602C377.37 49.376 377.882 49.7387 378.138 50.464L385.05 70.56Z" fill="#3F3838"/>
<defs>
<radialGradient id="paint0_radial_2_2" cx="0" cy="0" r="1" gradientUnits="userSpaceOnUse" gradientTransform="translate(54.9228 27.7735) rotate(64.7447) scale(92.0879 60.6383)">
<stop stop-color="#FFF4CC"/>
<stop offset="1" stop-color="#EEDFAB"/>
</radialGradient>
<radialGradient id="paint1_radial_2_2" cx="0" cy="0" r="1" gradientUnits="userSpaceOnUse" gradientTransform="translate(57.4442 17.4321) rotate(96.0747) scale(102.141 45.4549)">
<stop offset="0.15625" stop-color="#CC8769"/>
<stop offset="1" stop-color="#83CC69"/>
</radialGradient>
</defs>
</svg>
